<svg width="25" height="26" viewBox="0 0 25 26" fill="none" xmlns="http://www.w3.org/2000/svg">
<path d="M22.2656 20.0312H21.4844V4.40625C21.4844 4.19905 21.4021 4.00034 21.2556 3.85383C21.109 3.70731 20.9103 3.625 20.7031 3.625H15.2344C15.0272 3.625 14.8285 3.70731 14.682 3.85383C14.5354 4.00034 14.4531 4.19905 14.4531 4.40625V8.3125H9.76562C9.55843 8.3125 9.35971 8.39481 9.2132 8.54133C9.06669 8.68784 8.98438 8.88655 8.98438 9.09375V13H4.29688C4.08968 13 3.89096 13.0823 3.74445 13.2288C3.59794 13.3753 3.51563 13.574 3.51562 13.7812V20.0312H2.73438C2.52717 20.0312 2.32846 20.1136 2.18195 20.2601C2.03543 20.4066 1.95313 20.6053 1.95312 20.8125C1.95313 21.0197 2.03543 21.2184 2.18195 21.3649C2.32846 21.5114 2.52717 21.5938 2.73438 21.5938H22.2656C22.4728 21.5938 22.6715 21.5114 22.8181 21.3649C22.9646 21.2184 23.0469 21.0197 23.0469 20.8125C23.0469 20.6053 22.9646 20.4066 22.8181 20.2601C22.6715 20.1136 22.4728 20.0312 22.2656 20.0312ZM10.5469 9.875H14.4531V20.0312H10.5469V9.875ZM5.07812 14.5625H8.98438V20.0312H5.07812V14.5625Z" fill="#50565F"/>
</svg>
