<svg width="25" height="26" viewBox="0 0 25 26" fill="none" xmlns="http://www.w3.org/2000/svg">
<path opacity="0.2" d="M3.28133 14.7139C2.87543 12.5173 3.26596 10.2478 4.3828 8.31321C5.49964 6.37859 7.26962 4.90551 9.37487 4.15851V11.1958L3.28133 14.7139Z" fill="#50565F"/>
<path d="M12.5 13V3.625" stroke="#50565F" stroke-width="2" stroke-linecap="round" stroke-linejoin="round"/>
<path d="M20.619 8.3125L4.38098 17.6875" stroke="#50565F" stroke-width="2" stroke-linecap="round" stroke-linejoin="round"/>
<path d="M3.28133 14.7139C2.87543 12.5173 3.26596 10.2478 4.3828 8.31321C5.49964 6.37859 7.26962 4.90551 9.37487 4.15851V11.1958L3.28133 14.7139Z" stroke="#50565F" stroke-width="2" stroke-linecap="round" stroke-linejoin="round"/>
<path d="M12.5 3.625C14.1425 3.6253 15.7562 4.05714 17.1793 4.87725C18.6024 5.69737 19.7851 6.87698 20.6089 8.29797C21.4327 9.71896 21.8687 11.3314 21.8733 12.974C21.8778 14.6165 21.4508 16.2314 20.6349 17.6569C19.819 19.0824 18.6429 20.2686 17.2243 21.0966C15.8058 21.9246 14.1946 22.3654 12.5521 22.3748C10.9096 22.3843 9.29348 21.962 7.86552 21.1503C6.43757 20.3387 5.24792 19.1661 4.41571 17.75" stroke="#50565F" stroke-width="2" stroke-linecap="round" stroke-linejoin="round"/>
</svg>
