<svg width="17" height="23" viewBox="0 0 17 23" fill="none" xmlns="http://www.w3.org/2000/svg">
<g clip-path="url(#clip0_1_1480)">
<path d="M2.75 0.5C1.2332 0.5 0 1.7332 0 3.25V19.75C0 21.2668 1.2332 22.5 2.75 22.5H13.75C15.2668 22.5 16.5 21.2668 16.5 19.75V7.375H11C10.2395 7.375 9.625 6.76055 9.625 6V0.5H2.75ZM11 0.5V6H16.5L11 0.5ZM2.75 3.9375C2.75 3.55938 3.05938 3.25 3.4375 3.25H6.1875C6.56563 3.25 6.875 3.55938 6.875 3.9375C6.875 4.31562 6.56563 4.625 6.1875 4.625H3.4375C3.05938 4.625 2.75 4.31562 2.75 3.9375ZM2.75 6.6875C2.75 6.30937 3.05938 6 3.4375 6H6.1875C6.56563 6 6.875 6.30937 6.875 6.6875C6.875 7.06563 6.56563 7.375 6.1875 7.375H3.4375C3.05938 7.375 2.75 7.06563 2.75 6.6875ZM8.25 9.78125C8.62813 9.78125 8.9375 10.0906 8.9375 10.4688V11.2121C9.30273 11.2637 9.65508 11.3453 9.97305 11.4312C10.3383 11.5301 10.5574 11.9039 10.4586 12.2734C10.3598 12.643 9.98594 12.8578 9.61641 12.759C9.13945 12.6301 8.67109 12.5355 8.23711 12.5312C7.87617 12.527 7.48945 12.6086 7.22305 12.7676C6.97813 12.9137 6.875 13.0812 6.875 13.3176C6.875 13.4766 6.93086 13.5969 7.18867 13.7516C7.48516 13.9277 7.90195 14.0566 8.44336 14.2199L8.46484 14.2242C8.95039 14.3703 9.55195 14.5508 10.0246 14.8516C10.5445 15.1781 10.9871 15.698 11 16.493C11.0129 17.3223 10.5875 17.9238 10.016 18.2805C9.68516 18.4867 9.31133 18.607 8.9375 18.6715V19.4062C8.9375 19.7844 8.62813 20.0938 8.25 20.0938C7.87187 20.0938 7.5625 19.7844 7.5625 19.4062V18.6414C7.08125 18.5512 6.63008 18.3965 6.23477 18.259C6.14453 18.2289 6.0543 18.1988 5.96836 18.1688C5.60742 18.0484 5.41406 17.6574 5.53438 17.3008C5.65469 16.9441 6.0457 16.7465 6.40234 16.8668C6.50977 16.9012 6.60859 16.9355 6.70742 16.9699C7.2918 17.1676 7.76445 17.3309 8.26719 17.3438C8.6582 17.3566 9.03633 17.2707 9.28555 17.116C9.50469 16.9785 9.625 16.8023 9.6207 16.5145C9.61641 16.3168 9.54336 16.1793 9.28984 16.016C8.99766 15.8313 8.58086 15.698 8.04375 15.5348L7.975 15.5133C7.50234 15.3715 6.93086 15.1996 6.47969 14.9246C5.96406 14.6152 5.50859 14.1125 5.5043 13.3219C5.5 12.4883 5.96836 11.9125 6.52695 11.5816C6.84922 11.3926 7.20586 11.2723 7.5625 11.2078V10.4688C7.5625 10.0906 7.87187 9.78125 8.25 9.78125Z" fill="white"/>
</g>
<defs>
<clipPath id="clip0_1_1480">
<rect width="16.5" height="22" fill="white" transform="translate(0 0.5)"/>
</clipPath>
</defs>
</svg>
