<svg width="192" height="66" viewBox="0 0 192 66" fill="none" xmlns="http://www.w3.org/2000/svg">
<path fill-rule="evenodd" clip-rule="evenodd" d="M61.8241 40.5306C66.4188 36.1464 69 30.2002 69 24L56.8557 24C56.8557 27.1268 55.5539 30.1256 53.2368 32.3366C50.9196 34.5476 47.7769 35.7898 44.5 35.7898V47.3779C50.9978 47.3779 57.2295 44.9148 61.8241 40.5306ZM27.1759 31.0343C22.5812 35.4185 20 41.3647 20 47.5649L32.1443 47.5649C32.1443 44.4381 33.4461 41.4393 35.7632 39.2283C38.0804 37.0173 41.2231 35.7752 44.5 35.7752V24.1871C38.0022 24.1871 31.7705 26.6501 27.1759 31.0343Z" fill="#A41D21"/>
<path d="M103.352 34.9743V48H98.3233V36.2934C98.3233 35.4827 98.1241 34.7476 97.7257 34.0881C97.3272 33.4148 96.7913 32.8858 96.118 32.5011C95.4585 32.1026 94.7234 31.9034 93.9127 31.9034C93.1021 31.9034 92.3601 32.1026 91.6868 32.5011C91.0273 32.8858 90.4983 33.4148 90.0998 34.0881C89.7151 34.7476 89.5228 35.4827 89.5228 36.2934V48H84.4938L84.4732 27.3897H89.5021L89.5228 29.224C90.2235 28.4821 91.0617 27.8981 92.0372 27.4722C93.0128 27.0325 94.0639 26.8126 95.1906 26.8126C96.6883 26.8126 98.0554 27.1836 99.292 27.9256C100.529 28.6538 101.511 29.6362 102.239 30.8728C102.981 32.0957 103.352 33.4629 103.352 34.9743ZM115.3 48.5359C113.404 48.5359 111.673 48.0481 110.106 47.0725C108.554 46.097 107.31 44.7848 106.376 43.136C105.455 41.4871 104.995 39.6666 104.995 37.6742C104.995 36.1766 105.263 34.7751 105.799 33.4697C106.335 32.1507 107.07 30.9965 108.004 30.0072C108.952 29.0042 110.051 28.221 111.302 27.6576C112.552 27.0943 113.885 26.8126 115.3 26.8126C116.908 26.8126 118.378 27.1561 119.711 27.8431C121.057 28.5164 122.198 29.4439 123.132 30.6255C124.066 31.8072 124.746 33.1537 125.172 34.6651C125.598 36.1766 125.695 37.7567 125.461 39.4055H110.395C110.587 40.175 110.903 40.8688 111.343 41.4871C111.783 42.0917 112.339 42.5795 113.012 42.9505C113.686 43.3077 114.448 43.4932 115.3 43.507C116.179 43.5207 116.976 43.3146 117.691 42.8886C118.419 42.449 119.024 41.8581 119.505 41.1162L124.637 42.3116C123.798 44.139 122.548 45.6367 120.885 46.8046C119.223 47.9588 117.361 48.5359 115.3 48.5359ZM110.23 35.6338H120.37C120.219 34.8094 119.896 34.0674 119.402 33.4079C118.921 32.7346 118.323 32.1988 117.608 31.8003C116.894 31.4018 116.125 31.2026 115.3 31.2026C114.476 31.2026 113.713 31.4018 113.012 31.8003C112.312 32.185 111.714 32.714 111.219 33.3873C110.738 34.0468 110.409 34.7957 110.23 35.6338ZM125.475 48L133.018 37.6536L125.537 27.3691H131.74L136.11 33.3667L140.5 27.3691H146.703L139.222 37.6536L146.765 48H140.562L136.11 41.8994L131.679 48H125.475ZM163.477 27.3897H168.506V48H163.477L163.25 45.4443C162.687 46.3649 161.938 47.1138 161.004 47.6908C160.083 48.2542 158.991 48.5359 157.727 48.5359C156.202 48.5359 154.773 48.2473 153.44 47.6702C152.107 47.0931 150.932 46.2962 149.915 45.2794C148.912 44.2627 148.122 43.0879 147.545 41.7551C146.982 40.4223 146.7 38.9933 146.7 37.4681C146.7 35.9979 146.968 34.6171 147.504 33.3255C148.054 32.0339 148.816 30.9003 149.792 29.9248C150.767 28.9492 151.894 28.1866 153.172 27.637C154.45 27.0874 155.824 26.8126 157.294 26.8126C158.654 26.8126 159.87 27.1149 160.942 27.7195C162.027 28.324 162.948 29.0935 163.704 30.0278L163.477 27.3897ZM157.603 43.6924C158.675 43.6924 159.623 43.4245 160.447 42.8886C161.272 42.3528 161.917 41.6314 162.385 40.7246C162.852 39.804 163.085 38.7941 163.085 37.6949C163.085 36.5819 162.852 35.572 162.385 34.6651C161.917 33.7445 161.265 33.0163 160.427 32.4805C159.602 31.9446 158.661 31.6767 157.603 31.6767C156.545 31.6767 155.576 31.9515 154.697 32.5011C153.831 33.0369 153.137 33.7583 152.615 34.6651C152.107 35.572 151.853 36.5819 151.853 37.6949C151.853 38.8078 152.114 39.8177 152.636 40.7246C153.158 41.6314 153.852 42.3528 154.718 42.8886C155.597 43.4245 156.559 43.6924 157.603 43.6924Z" fill="#50565F"/>
</svg>
