<svg width="22" height="26" viewBox="0 0 22 26" fill="none" xmlns="http://www.w3.org/2000/svg">
<path d="M15.0002 17.9999H10.0002C9.55832 17.9994 9.13466 17.8237 8.8222 17.5112C8.50973 17.1988 8.334 16.7751 8.33356 16.3332V12.9999C8.334 12.558 8.50973 12.1344 8.8222 11.8219C9.13466 11.5094 9.55832 11.3337 10.0002 11.3333H15.0002C15.442 11.3337 15.8657 11.5094 16.1782 11.8219C16.4906 12.1344 16.6664 12.558 16.6668 12.9999V16.3332C16.6664 16.7751 16.4906 17.1988 16.1782 17.5112C15.8657 17.8237 15.442 17.9994 15.0002 17.9999ZM10.0002 12.9999V16.3332H15.0002V12.9999H10.0002Z" fill="#50565F"/>
<path d="M6.66641 13.8332H4.99976V9.66659C5.0002 9.2247 5.17593 8.80104 5.48839 8.48858C5.80086 8.17612 6.22452 8.00038 6.66641 7.99994H11.6664V9.66659H6.66641V13.8332Z" fill="#50565F"/>
<path d="M10.8332 25.5C10.6857 25.5001 10.5407 25.461 10.4132 25.3867L0.413329 19.5534C0.287516 19.48 0.183145 19.3749 0.110621 19.2485C0.0380983 19.1222 -4.31278e-05 18.9791 3.6596e-08 18.8334V7.16685C-4.31278e-05 7.02118 0.0380983 6.87805 0.110621 6.75172C0.183145 6.62538 0.287516 6.52027 0.413329 6.44685L10.4132 0.613579C10.5407 0.539196 10.6856 0.5 10.8332 0.5C10.9808 0.5 11.1258 0.539196 11.2532 0.613579L21.2531 6.44685L20.4131 7.88684L10.8332 2.29856L1.66665 7.64518V18.3551L10.8332 23.7025L19.9998 18.3551V12.1668H21.6665V18.8334C21.6665 18.9791 21.6284 19.1222 21.5558 19.2485C21.4833 19.3749 21.3789 19.48 21.2531 19.5534L11.2532 25.3867C11.1257 25.461 10.9808 25.5001 10.8332 25.5Z" fill="#50565F"/>
</svg>
