<svg width="24" height="24" viewBox="0 0 24 24" fill="none" xmlns="http://www.w3.org/2000/svg">
<path fill-rule="evenodd" clip-rule="evenodd" d="M16 8C16 10.21 14.21 12 12 12C9.79 12 8 10.21 8 8C8 5.79 9.79 4 12 4C14.21 4 16 5.79 16 8ZM12 13C14.7625 13 17 10.7625 17 8C17 5.2375 14.7625 3 12 3C9.2375 3 7 5.2375 7 8C7 10.7625 9.2375 13 12 13ZM15.722 14.626L15.3655 14.542L13.4545 20H20V17.25C20 16.727 19.648 16.1765 18.8215 15.634C18.4545 15.3925 17.8565 15.1775 17.1555 14.9825C16.6804 14.8538 16.2026 14.7349 15.7225 14.626H15.722ZM14.5175 13.937L13 18.272V18L12.7125 15.9895C12.8043 15.9702 12.8888 15.9254 12.9563 15.8603C13.0239 15.7953 13.0718 15.7125 13.0945 15.6215L13.3445 14.6215C13.363 14.5478 13.3644 14.4709 13.3487 14.3966C13.333 14.3223 13.3005 14.2525 13.2538 14.1926C13.2071 14.1327 13.1474 14.0842 13.0791 14.0508C13.0109 14.0175 12.936 14.0001 12.86 14H11.141C11.0651 14 10.9901 14.0173 10.9219 14.0507C10.8536 14.084 10.7938 14.1324 10.7471 14.1922C10.7003 14.2521 10.6678 14.3218 10.6521 14.3961C10.6363 14.4704 10.6376 14.5473 10.656 14.621L10.906 15.621C10.9287 15.7121 10.9765 15.795 11.0441 15.8601C11.1116 15.9253 11.1962 15.9701 11.288 15.9895L11.007 17.9555L9.48 13.9315L9.47 13.91C9.39621 13.7585 9.27294 13.6368 9.12057 13.5648C8.96819 13.4929 8.79584 13.4752 8.632 13.5145C8.4615 13.556 8.2735 13.5995 8.075 13.646C7.606 13.756 7.078 13.8795 6.577 14.019C5.8705 14.216 5.1385 14.464 4.63 14.798C3.6935 15.413 3 16.2265 3 17.25V21H21V17.25C21 16.2265 20.307 15.4125 19.37 14.798C18.862 14.464 18.13 14.216 17.4235 14.019C16.922 13.8795 16.3945 13.756 15.9255 13.6465C15.727 13.6 15.539 13.556 15.3685 13.514C15.2047 13.4748 15.0324 13.4927 14.8801 13.5647C14.7278 13.6367 14.6047 13.7585 14.531 13.91L14.5175 13.937ZM8.641 14.5405L10.7125 20H4V17.25C4 16.727 4.352 16.1765 5.1785 15.634C5.5455 15.3925 6.1435 15.1775 6.8445 14.9825C7.31964 14.8537 7.79741 14.7349 8.2775 14.626L8.641 14.5405Z" fill="#AAABB0"/>
</svg>
