<svg width="21" height="21" viewBox="0 0 21 21" fill="none" xmlns="http://www.w3.org/2000/svg">
<path d="M5.16904 2.29855C4.72065 2.29855 4.29063 2.47667 3.97357 2.79373C3.65651 3.11079 3.47839 3.54081 3.47839 3.9892V17.5144C3.47839 17.9628 3.65651 18.3928 3.97357 18.7098C4.29063 19.0269 4.72065 19.205 5.16904 19.205H15.3129C15.7613 19.205 16.1913 19.0269 16.5084 18.7098C16.8255 18.3928 17.0036 17.9628 17.0036 17.5144V7.3705L11.9316 2.29855M11.0863 3.56654L15.7356 8.21582H11.0863M7.64584 10.9378H13.6223V16.9142L11.8302 15.1221L9.43793 17.5144L7.04566 15.1221L9.43793 12.7383" fill="#878790"/>
</svg>
