<svg width="24" height="24" viewBox="0 0 24 24" fill="none" xmlns="http://www.w3.org/2000/svg">
<path d="M12 0C8.93169 0 6.46153 2.47015 6.46153 5.53846V9.23077C4.43076 9.23077 2.76923 10.8923 2.76923 12.9231V20.3077C2.76923 22.3385 4.43076 24 6.46153 24H17.5385C19.5692 24 21.2308 22.3385 21.2308 20.3077V12.9231C21.2308 10.8923 19.5692 9.23077 17.5385 9.23077H8.30769V5.53846C8.30769 3.43754 9.89907 1.84615 12 1.84615C14.1009 1.84615 15.6923 3.43754 15.6923 5.53846V6.46154H17.5385V5.53846C17.5385 2.47015 15.0683 0 12 0ZM12 13.8462C13.0154 13.8462 13.8461 14.6769 13.8461 15.6923C13.8461 16.3385 13.4769 16.9726 12.9231 17.2505V19.3846C12.9231 19.9385 12.5538 20.3077 12 20.3077C11.4461 20.3077 11.0769 19.9385 11.0769 19.3846V17.2495C10.5231 16.9726 10.1538 16.3385 10.1538 15.6923C10.1538 14.6769 10.9846 13.8462 12 13.8462Z" fill="white"/>
</svg>
